<svg width="16" height="18" viewBox="0 0 16 18" fill="none" xmlns="http://www.w3.org/2000/svg">
<path d="M3.39844 17V11.4" stroke="#999999" stroke-width="1.5" stroke-miterlimit="10" stroke-linecap="round" stroke-linejoin="round"/>
<path d="M3.39844 3.4V1" stroke="#999999" stroke-width="1.5" stroke-miterlimit="10" stroke-linecap="round" stroke-linejoin="round"/>
<path d="M12.1992 17V14.6" stroke="#999999" stroke-width="1.5" stroke-miterlimit="10" stroke-linecap="round" stroke-linejoin="round"/>
<path d="M12.1992 6.6V1" stroke="#999999" stroke-width="1.5" stroke-miterlimit="10" stroke-linecap="round" stroke-linejoin="round"/>
<path d="M5.8 5.00002V9.80002C5.8 10.68 5.4 11.4 4.2 11.4H2.6C1.4 11.4 1 10.68 1 9.80002V5.00002C1 4.12002 1.4 3.40002 2.6 3.40002H4.2C5.4 3.40002 5.8 4.12002 5.8 5.00002Z" stroke="#999999" stroke-width="1.5" stroke-miterlimit="10" stroke-linecap="round" stroke-linejoin="round"/>
<path d="M14.6008 8.19998V13C14.6008 13.88 14.2008 14.6 13.0008 14.6H11.4008C10.2008 14.6 9.80078 13.88 9.80078 13V8.19998C9.80078 7.31998 10.2008 6.59998 11.4008 6.59998H13.0008C14.2008 6.59998 14.6008 7.31998 14.6008 8.19998Z" stroke="#999999" stroke-width="1.5" stroke-miterlimit="10" stroke-linecap="round" stroke-linejoin="round"/>
</svg>
