<svg width="17" height="17" viewBox="0 0 17 17" fill="none" xmlns="http://www.w3.org/2000/svg">
<path d="M3.25 7H4.75C6.25 7 7 6.25 7 4.75V3.25C7 1.75 6.25 1 4.75 1H3.25C1.75 1 1 1.75 1 3.25V4.75C1 6.25 1.75 7 3.25 7Z" stroke="#999999" stroke-width="1.5" stroke-miterlimit="10" stroke-linecap="round" stroke-linejoin="round"/>
<path d="M12.25 7H13.75C15.25 7 16 6.25 16 4.75V3.25C16 1.75 15.25 1 13.75 1H12.25C10.75 1 10 1.75 10 3.25V4.75C10 6.25 10.75 7 12.25 7Z" stroke="#999999" stroke-width="1.5" stroke-miterlimit="10" stroke-linecap="round" stroke-linejoin="round"/>
<path d="M12.25 16H13.75C15.25 16 16 15.25 16 13.75V12.25C16 10.75 15.25 10 13.75 10H12.25C10.75 10 10 10.75 10 12.25V13.75C10 15.25 10.75 16 12.25 16Z" stroke="#999999" stroke-width="1.5" stroke-miterlimit="10" stroke-linecap="round" stroke-linejoin="round"/>
<path d="M3.25 16H4.75C6.25 16 7 15.25 7 13.75V12.25C7 10.75 6.25 10 4.75 10H3.25C1.75 10 1 10.75 1 12.25V13.75C1 15.25 1.75 16 3.25 16Z" stroke="#999999" stroke-width="1.5" stroke-miterlimit="10" stroke-linecap="round" stroke-linejoin="round"/>
</svg>
