<svg width="760" height="760" viewBox="0 0 760 760" fill="none" xmlns="http://www.w3.org/2000/svg">
<path d="M0 0L183.966 136.937L295.032 85.2264L484.15 113.042L550.483 50.4488L668.846 0H711.406L571.535 61.0888L490.519 153.125L321.009 123.363L176.366 196.202L0 83.448V0ZM130.766 0L228.365 59.5688L290.882 29.1688L460.18 55.0088L519.536 0H458.751L416.754 20.0488L285.806 0L233.335 29.792L182.446 0H130.766ZM0 264.982L177.886 366.396L380 299.242L529.462 338.899L694.686 124.838L760 98.1008V65.6488L682.526 98.1008L515.523 278.57L383.374 256.606L183.966 306.599L0 186.778V264.982ZM0 456.517L168.766 580.944L463.266 425.661L636.926 464.102L760 231.587V196.384L627.806 409.853L458.341 376.474L167.246 521.816L0 386.414V456.517ZM0 618.929L177.384 730.39L514.596 568.267L632.366 673.649L760 484.029V437.061L632.366 580.929L505.476 524.674L181.427 664.529L0 558.129V618.929ZM0 734.859L42.6056 760H137.864L0 691.889V734.859ZM389.15 760L506.418 679.014L643.522 760L760 691.889V642.914L644.526 718.534L512.27 642.914L315.187 760H389.15Z" fill="url(#paint0_linear_1748_483)" fill-opacity="0.05"/>
<defs>
<linearGradient id="paint0_linear_1748_483" x1="0" y1="380" x2="760" y2="380" gradientUnits="userSpaceOnUse">
<stop stop-color="white"/>
<stop offset="1" stop-color="white" stop-opacity="0"/>
</linearGradient>
</defs>
</svg>
