<svg width="8" height="13" viewBox="0 0 8 13" fill="none" xmlns="http://www.w3.org/2000/svg">
<path d="M4 10.0001C2.4 10.0001 0.99 9.23006 0.07 8.06006C0.03 8.30006 0 8.55006 0 8.80006C0 11.0101 1.79 12.8001 4 12.8001C6.21 12.8001 8 11.0101 8 8.80006C8 8.55006 7.97 8.30006 7.93 8.06006C7.01 9.23006 5.6 10.0001 4 10.0001Z" fill="white" fill-opacity="0.3"/>
<path d="M4 8C6.20914 8 8 6.20914 8 4C8 1.79086 6.20914 0 4 0C1.79086 0 0 1.79086 0 4C0 6.20914 1.79086 8 4 8Z" fill="white" fill-opacity="0.5"/>
</svg>
